<?xml version="1.0" standalone="no"?>
<svg xmlns:xlink="http://www.w3.org/1999/xlink" id="wave" style="transform:rotate(0deg); transition: 0.3s" viewBox="0 0 1440 390" version="1.1" xmlns="http://www.w3.org/2000/svg"><defs><linearGradient id="sw-gradient-0" x1="0" x2="0" y1="1" y2="0"><stop stop-color="rgba(68, 75, 255, 1)" offset="0%"/><stop stop-color="rgba(255, 53, 98, 1)" offset="100%"/></linearGradient></defs><path style="transform:translate(0, 0px); opacity:1" fill="url(#sw-gradient-0)" d="M0,78L26.7,71.5C53.3,65,107,52,160,71.5C213.3,91,267,143,320,149.5C373.3,156,427,117,480,136.5C533.3,156,587,234,640,247C693.3,260,747,208,800,169C853.3,130,907,104,960,97.5C1013.3,91,1067,104,1120,91C1173.3,78,1227,39,1280,19.5C1333.3,0,1387,0,1440,19.5C1493.3,39,1547,78,1600,91C1653.3,104,1707,91,1760,97.5C1813.3,104,1867,130,1920,123.5C1973.3,117,2027,78,2080,78C2133.3,78,2187,117,2240,110.5C2293.3,104,2347,52,2400,78C2453.3,104,2507,208,2560,266.5C2613.3,325,2667,338,2720,299C2773.3,260,2827,169,2880,123.5C2933.3,78,2987,78,3040,123.5C3093.3,169,3147,260,3200,247C3253.3,234,3307,117,3360,104C3413.3,91,3467,182,3520,188.5C3573.3,195,3627,117,3680,110.5C3733.3,104,3787,169,3813,201.5L3840,234L3840,390L3813.3,390C3786.7,390,3733,390,3680,390C3626.7,390,3573,390,3520,390C3466.7,390,3413,390,3360,390C3306.7,390,3253,390,3200,390C3146.7,390,3093,390,3040,390C2986.7,390,2933,390,2880,390C2826.7,390,2773,390,2720,390C2666.7,390,2613,390,2560,390C2506.7,390,2453,390,2400,390C2346.7,390,2293,390,2240,390C2186.7,390,2133,390,2080,390C2026.7,390,1973,390,1920,390C1866.7,390,1813,390,1760,390C1706.7,390,1653,390,1600,390C1546.7,390,1493,390,1440,390C1386.7,390,1333,390,1280,390C1226.7,390,1173,390,1120,390C1066.7,390,1013,390,960,390C906.7,390,853,390,800,390C746.7,390,693,390,640,390C586.7,390,533,390,480,390C426.7,390,373,390,320,390C266.7,390,213,390,160,390C106.7,390,53,390,27,390L0,390Z"/><defs><linearGradient id="sw-gradient-1" x1="0" x2="0" y1="1" y2="0"><stop stop-color="rgba(68, 75, 255, 1)" offset="0%"/><stop stop-color="rgba(255, 53, 98, 1)" offset="100%"/></linearGradient></defs><path style="transform:translate(0, 50px); opacity:0.9" fill="url(#sw-gradient-1)" d="M0,156L26.7,162.5C53.3,169,107,182,160,156C213.3,130,267,65,320,71.5C373.3,78,427,156,480,208C533.3,260,587,286,640,273C693.3,260,747,208,800,195C853.3,182,907,208,960,208C1013.3,208,1067,182,1120,201.5C1173.3,221,1227,286,1280,305.5C1333.3,325,1387,299,1440,273C1493.3,247,1547,221,1600,195C1653.3,169,1707,143,1760,169C1813.3,195,1867,273,1920,305.5C1973.3,338,2027,325,2080,292.5C2133.3,260,2187,208,2240,162.5C2293.3,117,2347,78,2400,71.5C2453.3,65,2507,91,2560,123.5C2613.3,156,2667,195,2720,195C2773.3,195,2827,156,2880,156C2933.3,156,2987,195,3040,182C3093.3,169,3147,104,3200,123.5C3253.3,143,3307,247,3360,247C3413.3,247,3467,143,3520,130C3573.3,117,3627,195,3680,201.5C3733.3,208,3787,143,3813,110.5L3840,78L3840,390L3813.3,390C3786.7,390,3733,390,3680,390C3626.7,390,3573,390,3520,390C3466.7,390,3413,390,3360,390C3306.7,390,3253,390,3200,390C3146.7,390,3093,390,3040,390C2986.7,390,2933,390,2880,390C2826.7,390,2773,390,2720,390C2666.7,390,2613,390,2560,390C2506.7,390,2453,390,2400,390C2346.7,390,2293,390,2240,390C2186.7,390,2133,390,2080,390C2026.7,390,1973,390,1920,390C1866.7,390,1813,390,1760,390C1706.7,390,1653,390,1600,390C1546.7,390,1493,390,1440,390C1386.7,390,1333,390,1280,390C1226.7,390,1173,390,1120,390C1066.7,390,1013,390,960,390C906.7,390,853,390,800,390C746.7,390,693,390,640,390C586.7,390,533,390,480,390C426.7,390,373,390,320,390C266.7,390,213,390,160,390C106.7,390,53,390,27,390L0,390Z"/></svg>